HIERARCHY
ROOT root
{
	OFFSET 0.000000 0.000000 0.000000
	CHANNELS 6 Xposition Yposition Zposition Zrotation Yrotation Xrotation
	JOINT lhip
	{
		OFFSET 0.058581 -0.082280 -0.017664
		CHANNELS 3 Zrotation Yrotation Xrotation
		JOINT lknee
		{
			OFFSET 0.043451 -0.386469 0.008037
			CHANNELS 3 Zrotation Yrotation Xrotation
			JOINT lankle
			{
				OFFSET -0.014790 -0.426874 -0.037428
				CHANNELS 3 Zrotation Yrotation Xrotation
				JOINT ltoe
				{
					OFFSET 0.041054 -0.060286 0.122042
					CHANNELS 3 Zrotation Yrotation Xrotation
					End Site
					{
						OFFSET 0.000000 0.000000 0.000000
					}
				}
			}
		}
	}
	JOINT rhip
	{
		OFFSET -0.060310 -0.090513 -0.013543
		CHANNELS 3 Zrotation Yrotation Xrotation
		JOINT rknee
		{
			OFFSET -0.043257 -0.383688 -0.004843
			CHANNELS 3 Zrotation Yrotation Xrotation
			JOINT rankle
			{
				OFFSET 0.019056 -0.420046 -0.034562
				CHANNELS 3 Zrotation Yrotation Xrotation
				JOINT rtoe
				{
					OFFSET -0.034840 -0.062106 0.130323
					CHANNELS 3 Zrotation Yrotation Xrotation
					End Site
					{
						OFFSET 0.000000 0.000000 0.000000
					}
				}
			}
		}
	}
	JOINT lowerback
	{
		OFFSET 0.004439 0.124404 -0.038385
		CHANNELS 3 Zrotation Yrotation Xrotation
		JOINT upperback
		{
			OFFSET 0.004488 0.137956 0.026820
			CHANNELS 3 Zrotation Yrotation Xrotation
			JOINT chest
			{
				OFFSET -0.002265 0.056032 0.002855
				CHANNELS 3 Zrotation Yrotation Xrotation
				JOINT lowerneck
				{
					OFFSET -0.013390 0.211636 -0.033468
					CHANNELS 3 Zrotation Yrotation Xrotation
					JOINT upperneck
					{
						OFFSET 0.010113 0.088937 0.050410
						CHANNELS 3 Zrotation Yrotation Xrotation
						End Site
						{
							OFFSET 0.000000 0.000000 0.000000
						}
					}
				}
				JOINT lclavicle
				{
					OFFSET 0.071702 0.114000 -0.018898
					CHANNELS 3 Zrotation Yrotation Xrotation
					JOINT lshoulder
					{
						OFFSET 0.122921 0.045205 -0.019046
						CHANNELS 3 Zrotation Yrotation Xrotation
						JOINT lelbow
						{
							OFFSET 0.255332 -0.015649 -0.022946
							CHANNELS 3 Zrotation Yrotation Xrotation
							JOINT lwrist
							{
								OFFSET 0.265709 0.012698 -0.007375
								CHANNELS 3 Zrotation Yrotation Xrotation
								End Site
								{
									OFFSET 0.000000 0.000000 0.000000
								}
							}
						}
					}
				}
				JOINT rclavicle
				{
					OFFSET -0.082954 0.112472 -0.023707
					CHANNELS 3 Zrotation Yrotation Xrotation
					JOINT rshoulder
					{
						OFFSET -0.113228 0.046853 -0.008472
						CHANNELS 3 Zrotation Yrotation Xrotation
						JOINT relbow
						{
							OFFSET -0.260127 -0.014369 -0.031269
							CHANNELS 3 Zrotation Yrotation Xrotation
							JOINT rwrist
							{
								OFFSET -0.269108 0.006794 -0.006027
								CHANNELS 3 Zrotation Yrotation Xrotation
								End Site
								{
									OFFSET 0.000000 0.000000 0.000000
								}
							}
						}
					}
				}
			}
		}
	}
}
MOTION
Frames: 10
Frame Time: 0.033333
-0.206720 0.177919 0.912910 -57.535922 2.640489 104.861540 15.484675 3.754079 -45.279787 -11.768029 7.252095 55.146468 -5.594030 -1.527299 -17.214079 0.000000 -0.000000 0.000000 -3.955845 -13.930953 -39.974428 6.423161 -26.938415 60.267125 9.294265 14.851081 -15.748702 0.000000 -0.000000 0.000000 -6.551307 12.201086 44.180627 6.202287 -5.181071 3.478350 6.895547 1.187008 -3.693273 7.175638 12.466984 -9.669672 18.406720 -16.846344 -22.313551 -12.022822 -13.185972 -6.171631 -8.564942 -11.556918 -16.694169 24.717963 -25.027031 -55.447720 -27.151007 -27.619523 -30.693917 27.842766 12.156014 2.224366 32.488285 12.824346 -4.204271 -16.702960 22.089118 -22.828542 3.747756 6.039081 -10.040010 
-0.247921 0.210317 0.923032 -63.005881 4.296959 105.034327 15.087715 0.828337 -43.972084 -11.287445 6.675667 52.838377 -4.280788 -1.742846 -17.401760 0.000000 -0.000000 0.000000 -4.566786 -12.920727 -37.040965 0.166323 -27.309292 59.292861 6.454899 2.968958 -15.602330 0.000000 -0.000000 0.000000 -7.054537 13.119527 43.287544 4.765534 -2.532039 3.207117 6.698285 1.681457 -4.011338 8.948342 4.439792 -9.335622 20.731077 -16.094555 -21.414047 -14.992076 -8.555363 -4.627975 -15.550233 -16.453020 -14.307656 45.858569 -36.041844 -63.803550 -17.765550 -26.027085 -40.056873 27.615708 9.462337 2.512769 38.376293 9.059000 -2.406578 -19.916351 21.575670 -28.094898 2.728168 5.786926 -14.534789 
-0.292040 0.238634 0.918045 -67.088626 5.629322 104.420680 14.712182 0.186424 -41.103792 -10.794259 6.526551 53.211576 -1.410070 2.545591 -20.787681 0.000000 -0.000000 0.000000 -8.156582 -12.099718 -33.065795 -2.231820 -23.905882 57.419039 4.511053 -1.840003 -16.938755 0.000000 -0.000000 0.000000 -6.417840 12.373444 40.924544 3.514222 -1.047258 3.416373 5.662438 2.281478 -3.462153 8.929489 -0.416848 -7.960448 22.817518 -16.229048 -19.894280 -16.626859 -6.446140 -4.960120 -20.279454 -20.567708 -11.613131 63.977953 -43.980119 -71.109387 -12.768797 -22.854259 -45.078608 27.847313 7.255811 3.325137 43.427534 5.132200 -2.731127 -21.975426 21.514761 -29.580422 5.279630 5.270330 -19.445457 
-0.339126 0.268532 0.902734 -70.599874 7.515101 102.999949 16.944458 2.552380 -35.792998 -7.638262 4.807401 54.805098 -0.495166 5.376230 -27.889396 0.000000 -0.000000 0.000000 -11.314922 -11.905751 -30.743164 -1.363474 -18.113060 56.732620 5.417789 -1.166449 -18.509101 0.000000 -0.000000 0.000000 -5.870293 10.889069 37.880415 3.222969 -0.029517 3.907396 5.386113 2.070688 -2.387273 9.323152 -1.245087 -6.698551 22.422450 -16.448409 -16.511255 -15.654803 -4.981225 -4.786995 -24.754284 -22.505456 -9.361222 85.614469 -50.192378 -80.506855 -10.108162 -19.664254 -43.723261 27.174948 5.231349 3.685415 47.226501 2.192603 -3.818840 -22.338321 22.787157 -28.337786 4.968686 4.991712 -21.121039 
-0.387163 0.301201 0.884820 -74.442704 8.493610 101.597840 21.328065 4.395774 -28.793645 -10.684876 0.706127 53.857825 -1.847818 5.450746 -34.126874 0.000000 -0.000000 0.000000 -15.530608 -12.451367 -31.339762 -2.135736 -15.667269 59.664598 5.970118 -0.793447 -19.344306 0.000000 -0.000000 0.000000 -6.647884 8.573358 34.771816 3.724154 0.112109 3.748396 5.305717 1.498169 -0.654021 10.136933 0.602411 -5.664729 20.246404 -16.847407 -12.387014 -14.565492 -2.727381 -5.326079 -28.057971 -23.335056 -6.184461 111.271810 -55.493163 -95.155480 -10.057725 -18.183474 -37.645170 26.975615 2.517496 2.966251 49.166620 0.526865 -4.516934 -23.112760 25.536117 -26.325804 7.510279 4.929435 -20.481512 
-0.436735 0.338043 0.877043 -80.288293 9.140063 101.103440 25.363500 7.681084 -21.466610 -10.731877 2.094989 50.901183 -3.196613 5.596144 -34.803090 0.000000 -0.000000 0.000000 -16.443982 -12.808461 -37.264156 -3.111601 -14.861672 63.873570 4.121086 -2.519994 -20.348198 0.000000 -0.000000 0.000000 -7.689717 5.917681 31.994923 3.567552 0.845260 3.791164 4.669070 0.628085 -0.066562 10.511647 2.845764 -4.079901 18.306703 -14.642723 -8.009849 -15.553465 -1.815334 -4.360383 -28.386566 -22.297081 -2.816471 138.474829 -57.705307 -113.795880 -5.605344 -14.007817 -26.744185 27.519526 1.276314 3.646631 49.894311 -0.184274 -4.486445 -22.539244 28.196089 -24.494783 5.730666 5.522153 -19.944947 
-0.489037 0.378894 0.883326 -85.856931 9.100188 101.163917 27.511246 9.950854 -13.641868 -10.444463 -1.041419 45.606368 -6.275157 4.996229 -29.720814 0.000000 -0.000000 0.000000 -14.395445 -13.813181 -43.856625 -1.822337 -16.774202 64.529161 4.445662 -0.711228 -19.966916 0.000000 -0.000000 0.000000 -8.639334 3.014472 30.896669 3.415985 0.534563 4.144160 4.198017 -0.798796 0.058281 11.341159 6.802222 -3.641258 16.016550 -10.933667 -4.152175 -18.185055 -2.276505 -2.594827 -29.170093 -18.854193 3.014282 154.855104 -61.414468 -126.169136 5.800722 -10.430468 -16.502112 28.874602 1.834872 3.867505 49.350275 0.500446 -3.236031 -20.271356 29.338901 -22.775359 0.099964 5.455107 -18.108098 
-0.544238 0.424970 0.897056 -90.594059 8.521028 102.013825 28.800677 8.396123 -5.757941 -9.150540 -3.927231 37.861389 -10.887884 4.991524 -19.348214 0.000000 -0.000000 0.000000 -11.204346 -13.244058 -48.189863 1.572102 -22.580877 58.666321 5.123838 0.937253 -19.086272 0.000000 -0.000000 0.000000 -9.613212 0.667705 30.045489 3.916607 -0.915515 5.149805 3.801721 -2.306164 -0.279525 12.316420 11.747512 -3.284023 14.412980 -8.361544 -2.245495 -20.430495 -3.900902 -1.595232 -31.349787 -16.896112 8.431405 148.558677 -77.991761 -119.374850 19.555227 -10.149601 -7.430195 30.872291 2.631333 3.868359 48.572232 1.977966 -1.031302 -17.682006 28.769168 -19.905936 -6.259067 5.687118 -18.839172 
-0.601090 0.471933 0.908792 -94.799531 7.995977 103.575869 28.276819 6.622534 0.266384 -6.211642 -8.097538 31.178450 -12.521745 5.079606 -8.045608 0.000000 -0.000000 0.000000 -6.886721 -10.762527 -50.695565 7.260332 -27.254004 47.398563 4.995413 1.267887 -18.586312 0.000000 -0.000000 0.000000 -9.364616 -1.403661 29.548607 4.254955 -2.770386 5.844990 3.568663 -4.059050 -1.448398 13.043915 15.398177 -2.720275 12.858229 -5.313845 -1.581638 -21.604290 -8.650177 -1.872675 -31.910946 -17.361361 10.228955 11.979779 -72.622939 23.517752 25.075916 -14.678254 17.668350 31.306886 4.842655 4.190484 49.439571 2.383514 -0.250295 -15.861051 27.082086 -16.157476 -9.610614 6.383388 -22.056366 
-0.656595 0.518766 0.911521 -98.034963 6.789364 105.388275 25.725746 3.880691 2.340689 -4.905763 -11.913211 32.177278 -9.685708 7.596617 -5.316068 0.000000 -0.000000 0.000000 -3.413061 -7.525618 -51.821918 11.557000 -27.105524 37.029107 5.572466 0.370417 -16.313278 0.000000 -0.000000 0.000000 -9.369962 -3.299920 29.996237 5.006015 -5.607354 5.923951 4.199241 -5.666512 -2.491332 11.123052 17.881366 -4.394096 11.713979 -1.692942 -2.417277 -21.695806 -14.147456 -1.103112 -29.848175 -19.851626 9.080592 6.061585 -45.926724 24.478113 19.319125 -13.563598 21.421187 30.966842 7.373296 4.701729 49.916587 3.460533 2.478705 -16.164427 25.462295 -16.369548 -8.992952 6.484747 -24.029605 
